<svg width="328" height="198" viewBox="0 0 328 198" fill="none" xmlns="http://www.w3.org/2000/svg">
    <path d="M0 0H327.889V198H0V0Z" fill="#FFA800"/>
    <g clip-path="url(#clip0)">
        <path d="M281.648 60.8733C281.648 60.8733 283.578 45.0828 286.797 49.3893C290.015 53.6958 286.797 60.1555 286.797 60.1555L284.222 63.7443L281.648 61.591V60.8733Z" fill="#9F616A"/>
        <path d="M273.924 65.8975C273.924 65.8975 280.36 58.0023 281.648 59.4378C282.935 60.8733 286.797 61.591 286.153 64.462C285.509 67.333 271.993 76.6637 271.993 76.6637L273.924 65.8975Z" fill="#0084FF"/>
        <path opacity="0.1" d="M273.924 65.8975C273.924 65.8975 280.36 58.0023 281.648 59.4378C282.935 60.8733 286.797 61.591 286.153 64.462C285.509 67.333 271.993 76.6637 271.993 76.6637L273.924 65.8975Z" fill="black"/>
        <path d="M237.237 65.1797V70.9217C237.237 70.9217 236.593 83.8412 240.455 83.1234C244.317 82.4057 242.386 71.6395 242.386 71.6395L241.742 65.1798L237.237 65.1797Z" fill="#9F616A"/>
        <path d="M239.167 106.809C239.167 106.809 233.375 116.858 231.444 117.575C229.513 118.293 219.215 124.753 217.927 131.212L208.917 144.132L213.422 150.592C213.422 150.592 234.018 126.188 239.811 124.035C245.604 121.882 251.397 111.116 251.397 111.116L239.167 106.809Z" fill="#9F616A"/>
        <path d="M284.866 90.3009C284.866 90.3009 297.095 92.4541 295.164 101.067C293.233 109.68 274.568 127.624 274.568 127.624L273.924 131.93L266.844 133.366L263.626 129.777L264.269 127.624C264.269 127.624 271.993 119.729 272.637 116.858C273.28 113.987 280.36 102.503 283.578 101.785L279.073 98.9139L284.866 90.3009Z" fill="#9F6161"/>
        <path d="M210.847 144.132C210.847 144.132 213.422 139.826 209.56 140.543C205.698 141.261 203.124 141.979 203.124 144.85C203.124 147.721 206.342 167.818 210.204 166.382C214.066 164.947 210.847 158.487 210.847 158.487C210.847 158.487 212.778 152.745 214.066 152.027C215.353 151.31 215.353 147.721 214.066 147.721C212.778 147.721 210.204 145.568 210.847 144.132Z" fill="#2F2E41"/>
        <path d="M265.557 128.342C265.557 128.342 265.557 124.753 262.982 128.342C260.408 131.93 259.12 134.801 261.695 136.955C264.269 139.108 273.28 144.132 273.28 144.132C273.28 144.132 282.935 146.285 281.648 141.261C281.648 141.261 275.211 137.672 275.211 134.801C275.211 131.93 275.211 126.906 273.28 128.342C271.349 129.777 265.557 130.495 265.557 128.342Z" fill="#2F2E41"/>
        <path d="M253.328 74.5104C253.328 74.5104 244.317 75.9459 244.96 90.3009C244.96 90.3009 233.375 103.22 236.593 107.527C239.811 111.833 246.891 119.729 249.466 117.575C252.04 115.422 259.764 98.9139 259.764 98.9139C259.764 98.9139 277.786 106.091 281.004 102.503C284.222 98.9139 287.44 90.3009 287.44 90.3009L271.349 80.9702L253.328 74.5104Z" fill="#2F2E41"/>
        <path d="M278.429 33.5988C274.164 33.5988 270.706 29.7427 270.706 24.9858C270.706 20.229 274.164 16.3729 278.429 16.3729C282.695 16.3729 286.153 20.229 286.153 24.9858C286.153 29.7427 282.695 33.5988 278.429 33.5988Z" fill="#9F616A"/>
        <path d="M272.637 25.7036C272.637 25.7036 268.131 33.5988 266.844 34.3166C265.557 35.0343 275.855 42.2118 275.855 42.2118C275.855 42.2118 275.855 32.8811 279.073 30.7278L272.637 25.7036Z" fill="#9F616A"/>
        <path d="M271.993 33.5988C271.993 33.5988 261.695 30.0101 259.764 35.7521C257.833 41.4941 253.328 52.2603 253.971 59.4378C254.615 66.6152 255.902 65.1797 253.971 67.333C252.04 69.4862 250.753 68.0507 251.397 70.9217C252.04 73.7927 252.684 73.7927 252.04 75.2282C251.397 76.6637 259.764 81.6879 266.844 82.4057L273.924 83.1234C273.924 83.1234 273.924 70.204 275.211 67.333C276.498 64.462 279.073 58.72 279.073 56.5668V50.8695C279.073 47.0774 278.186 43.351 276.498 40.0586V40.0586C276.498 40.0586 272.637 33.5988 271.993 33.5988Z" fill="#0085FF"/>
        <path d="M264.269 36.4698C264.269 36.4698 240.455 38.6231 237.88 45.8006C235.306 52.978 234.018 67.333 236.593 67.333C239.167 67.333 242.386 68.7685 243.029 67.333C243.673 65.8975 246.247 51.5425 246.891 51.5425C247.535 51.5425 266.844 49.3893 266.844 49.3893C266.844 49.3893 275.211 37.9053 264.269 36.4698Z" fill="#0084FF"/>
        <path d="M278.74 22.8506C278.74 22.8506 280.789 18.8786 283.351 22.3286C285.913 25.7787 290.081 19.4386 289.441 18.0857C288.802 16.7329 286.542 18.1466 282.67 16.735C278.798 15.3235 271.339 12.4479 270.09 21.8282C268.841 31.2085 271.816 30.2251 271.816 30.2251C271.816 30.2251 273.179 21.9131 274.412 24.3007L275.644 26.6882L276.714 26.9817L278.74 22.8506Z" fill="#2F2E41"/>
    </g>
    <defs>
        <clipPath id="clip0">
            <rect width="92.4679" height="151.76" fill="white" transform="matrix(-1 0 0 1 295.468 15)"/>
        </clipPath>
    </defs>
</svg>
