<svg width="328" height="198" viewBox="0 0 328 198" fill="none" xmlns="http://www.w3.org/2000/svg">
    <rect width="327.889" height="198" fill="#FFA800"/>
    <path d="M253.046 125.776C253.187 127.6 253.889 129.488 255.364 130.565C256.84 131.641 259.188 131.62 260.315 130.175C260.694 129.632 260.972 129.026 261.137 128.385C262.087 125.379 262.761 122.091 261.72 119.115C259.372 118.962 256.651 117.856 254.889 119.799C253.465 121.382 252.882 123.666 253.046 125.776Z" fill="#3F3D56"/>
    <path d="M263.945 107.389C263.633 110.041 263.103 112.682 263.157 115.352C263.178 116.383 263.287 117.405 263.289 118.44C263.293 121.128 262.586 123.769 261.24 126.095C261.098 126.368 260.908 126.614 260.68 126.82C260.14 127.258 259.327 127.222 258.721 126.886C258.129 126.518 257.648 125.995 257.33 125.374C255.633 122.465 255.585 118.928 254.914 115.628C254.399 113.104 253.497 110.657 253.171 108.103C252.96 106.459 252.992 104.783 252.655 103.159C252.552 102.669 252.265 101.933 252.076 101.21C251.903 100.564 251.807 99.9304 251.985 99.4949C252.347 98.6032 253.534 98.9498 254.306 99.0046C257.024 99.2064 259.754 99.1995 262.472 98.9841C262.741 98.9635 263.046 98.9521 263.235 99.1437C263.317 99.2404 263.379 99.3529 263.417 99.4743C263.633 100.067 263.799 100.678 263.911 101.299C264.287 103.285 264.182 105.367 263.945 107.389Z" fill="#FABDBD"/>
    <g opacity="0.1">
        <path opacity="0.1" d="M262.898 98.984C262.758 98.9692 262.616 98.9692 262.476 98.984C261.174 99.0889 259.869 99.1413 258.566 99.1481C260.01 99.1512 261.454 99.0965 262.898 98.984Z" fill="black"/>
        <path opacity="0.1" d="M259.181 126.886C258.589 126.518 258.108 125.995 257.79 125.374C256.093 122.465 256.045 118.928 255.374 115.628C254.859 113.104 253.957 110.657 253.631 108.103C253.42 106.459 253.452 104.783 253.114 103.159C253.012 102.669 252.725 101.933 252.536 101.21C252.363 100.564 252.267 99.9304 252.445 99.4948C252.52 99.3162 252.647 99.1644 252.81 99.0587C252.972 98.953 253.162 98.8984 253.356 98.9019C252.78 98.8632 252.217 98.9316 251.99 99.4948C251.812 99.9304 251.908 100.564 252.081 101.21C252.27 101.933 252.557 102.669 252.659 103.159C252.996 104.783 252.964 106.459 253.176 108.103C253.502 110.659 254.403 113.106 254.918 115.628C255.59 118.928 255.638 122.469 257.334 125.374C257.653 125.995 258.134 126.518 258.726 126.886C259.089 127.088 259.506 127.172 259.919 127.128C259.66 127.094 259.41 127.012 259.181 126.886V126.886Z" fill="black"/>
    </g>
    <path d="M272.555 121.375C271.189 124.111 271.417 127.988 271.417 127.988C271.645 137.109 268.001 156.264 268.001 156.264H264.813C264.813 156.264 264.357 135.057 264.813 133.233C265.268 131.408 264.585 125.023 263.902 116.13C263.394 109.517 264.776 103.524 265.519 100.895C265.774 99.9829 265.951 99.4835 265.951 99.4835C265.951 99.4835 271.189 91.7303 274.15 95.3788C274.833 96.2271 275.195 97.9397 275.32 100.101C275.725 107.234 273.603 119.275 272.555 121.375Z" fill="#FABDBD"/>
    <path opacity="0.1" d="M275.32 100.101C275.195 97.9396 274.837 96.2248 274.15 95.3788C273.489 94.567 272.715 94.3207 271.913 94.4279C272.535 94.5312 273.091 94.8721 273.466 95.3788C274.15 96.2271 274.512 97.9396 274.637 100.101C275.042 107.234 272.92 119.275 271.872 121.375C270.506 124.111 270.734 127.988 270.734 127.988C270.961 137.109 267.318 156.264 267.318 156.264H268.001C268.001 156.264 271.645 137.109 271.417 127.988C271.417 127.988 271.189 124.111 272.555 121.375C273.603 119.275 275.725 107.234 275.32 100.101Z" fill="black"/>
    <path d="M263.155 155.432C262.901 155.632 262.68 155.872 262.504 156.143C262.096 156.914 262.674 157.835 263.294 158.449C263.913 159.062 264.66 159.719 264.66 160.592C264.66 161.294 264.13 161.896 263.535 162.27C263.216 162.471 262.816 162.727 262.882 163.105C262.905 163.201 262.946 163.291 263.002 163.372C263.512 164.154 264.417 164.612 265.332 164.786C266.247 164.959 267.193 164.884 268.124 164.808C268.263 164.813 268.4 164.766 268.506 164.676C268.574 164.585 268.61 164.475 268.609 164.362C268.655 163.878 268.625 163.367 268.837 162.932C269.133 162.337 269.814 162.033 270.203 161.5C270.75 160.77 270.674 159.755 270.467 158.868C270.012 156.937 268.998 154.734 267.477 153.395C265.715 151.858 264.332 154.321 263.155 155.432Z" fill="#3F3D56"/>
    <path d="M270.055 40.4909C271.326 38.5891 270.996 35.9302 269.698 34.0376C268.399 32.1449 266.314 30.9545 264.162 30.1861C261.26 29.1508 258.061 28.7973 255.08 29.5749C252.707 30.1929 250.575 31.4859 248.339 32.4847C244.383 34.2523 240.081 35.1094 235.75 34.993C230.943 34.8585 225.676 33.6248 221.643 36.2563C214.26 41.0656 217.544 54.1548 210.559 59.5158C208.676 60.9616 206.305 61.5932 204.21 62.7083C202.115 63.8234 200.13 65.764 200.18 68.1401C200.202 69.2803 200.703 70.368 201.318 71.3326C203.937 75.4897 208.833 78.0619 213.736 78.014C218.639 77.9661 223.424 75.3551 226.25 71.3371C226.958 70.3315 227.582 69.2119 228.609 68.5414C230.658 67.196 233.359 68.1378 235.805 68.3385C241.25 68.7832 246.697 64.6899 247.781 59.3197C248.237 57.028 248.157 54.2893 249.999 52.8504C251.486 51.6897 253.579 51.9383 255.465 51.7399C258.912 51.3819 261.634 49.2315 263.506 46.4221C264.364 45.1337 264.464 43.5945 265.635 42.5797C266.896 41.4646 268.848 42.2878 270.055 40.4909Z" fill="#3F3D56"/>
    <g opacity="0.1">
        <path opacity="0.1" d="M231.196 35.4331C233.193 35.4879 235.19 35.3351 237.156 34.977C236.614 34.993 236.067 34.993 235.523 34.977C231.749 34.8721 227.693 34.0922 224.173 35.0317C226.496 35.0545 228.898 35.3692 231.196 35.4331Z" fill="black"/>
        <path opacity="0.1" d="M224.05 68.9952C223.023 69.6656 222.399 70.7853 221.691 71.7909C219.514 74.8505 216.332 77.0468 212.702 77.9957C212.969 78.0071 213.235 78.0139 213.504 78.0117C218.411 77.9638 223.191 75.3528 226.017 71.3348C226.726 70.3292 227.35 69.2095 228.377 68.5391L228.554 68.4297C226.947 68.2085 225.368 68.1309 224.05 68.9952Z" fill="black"/>
        <path opacity="0.1" d="M269.467 34.0307C268.172 32.1471 266.083 30.9476 263.931 30.1792C261.03 29.1439 257.831 28.7904 254.85 29.568C254.781 29.584 254.715 29.6045 254.649 29.6228C256.342 29.7173 258.011 30.0583 259.605 30.6352C261.757 31.4037 263.845 32.6032 265.141 34.4867C266.436 36.3703 266.769 39.0474 265.498 40.9401C264.291 42.7439 262.34 41.9207 261.062 43.0312C259.892 44.0459 259.791 45.5852 258.933 46.8736C257.323 49.2839 255.082 51.2062 252.292 51.9359C253.251 51.8219 254.262 51.8356 255.219 51.7353C258.666 51.3773 261.388 49.2269 263.26 46.4175C264.118 45.1291 264.218 43.5899 265.389 42.5751C266.666 41.4646 268.618 42.2878 269.825 40.484C271.098 38.5822 270.768 35.9142 269.467 34.0307Z" fill="black"/>
        <path opacity="0.1" d="M250.894 52.1913C249.02 52.3874 246.927 52.1411 245.429 53.3018C243.586 54.7407 243.675 57.4794 243.211 59.7712C242.411 63.7777 239.164 67.082 235.309 68.3111L235.58 68.3362C241.025 68.7808 246.472 64.6876 247.556 59.3174C248.011 57.0256 247.932 54.2869 249.774 52.848C250.197 52.5312 250.677 52.2989 251.188 52.1639C251.085 52.1662 250.992 52.1822 250.894 52.1913Z" fill="black"/>
    </g>
    <path d="M305.917 32.3273C305.917 32.3273 300.452 43.273 298.63 47.3776C296.808 51.4822 280.184 57.6391 277.907 57.8672C277.296 57.951 276.727 58.2255 276.281 58.6516C274.994 59.7918 274.263 61.7438 274.263 61.7438C274.263 61.7438 275.174 67.9007 274.036 78.1622C274.013 78.3606 273.992 78.559 273.974 78.7506C272.981 88.515 275.06 90.8181 275.06 90.8181C275.06 90.8181 252.971 99.2554 253.654 88.3098C253.868 84.8642 253.836 82.3467 253.625 80.2419C253.393 78.0872 252.955 75.9598 252.317 73.8889C251.778 71.9985 251.133 69.9256 250.466 67.1026C250.145 65.694 249.722 64.3107 249.2 62.9637C249.184 62.9227 249.168 62.8816 249.154 62.8429C248.016 60.013 246.877 59.0986 246.226 58.8021C245.611 58.5342 245.025 58.2042 244.477 57.817C242.373 56.296 237.857 52.8869 233.835 48.8598C228.37 43.387 222.904 30.389 222.904 30.389C222.904 30.389 221.31 22.8639 224.954 16.707C228.597 10.55 227.003 28.7928 227.003 28.7928C227.003 28.7928 233.607 37.6861 235.202 41.7907C236.021 43.9023 237.324 44.9832 238.39 45.5442C240.15 46.462 241.836 47.5173 243.432 48.7002C244.51 49.5161 245.643 50.2567 246.822 50.9167C249.368 52.2849 252.418 53.8287 254.959 54.2346C255.356 54.3002 255.757 54.3345 256.159 54.3372C256.35 54.3433 256.54 54.3053 256.713 54.2262C256.887 54.1471 257.04 54.0291 257.161 53.8811C257.844 53.0762 257.828 51.3431 257.671 49.9179C257.587 49.1796 257.463 48.4465 257.298 47.7219C257.298 47.7219 264.699 43.0472 264.471 48.7481C264.436 49.378 264.494 50.0097 264.644 50.6225C264.765 51.185 265.034 51.7051 265.421 52.1298C265.809 52.5545 266.302 52.8685 266.851 53.0397C267.74 53.3007 268.68 53.3313 269.584 53.1286C269.865 53.0804 270.138 52.9873 270.39 52.8527C271.073 52.3966 277.905 50.3443 279.954 50.1163C282.004 49.8882 292.251 44.8715 292.251 44.8715L303.41 29.3652C303.41 29.3652 303.182 20.2438 307.737 16.5952C312.291 12.9467 305.917 32.3273 305.917 32.3273Z" fill="#FABDBD"/>
    <g opacity="0.1">
        <path opacity="0.1" d="M273.974 77.3823C273.775 79.2148 273.688 81.0576 273.712 82.9007C273.735 81.6967 273.815 80.3217 273.974 78.7505C273.992 78.559 274.013 78.3606 274.036 78.1622C274.434 74.6504 274.624 71.118 274.605 67.5837C274.57 70.6614 274.38 73.7354 274.036 76.794C274.022 76.9924 273.992 77.1908 273.974 77.3823Z" fill="black"/>
        <path opacity="0.1" d="M257.535 47.5759C257.382 47.6649 257.307 47.7196 257.307 47.7196C257.528 48.6951 257.674 49.6861 257.744 50.684C257.79 49.6434 257.72 48.6009 257.535 47.5759V47.5759Z" fill="black"/>
        <path opacity="0.1" d="M227.11 27.5546C227.222 25.9583 227.388 23.0965 227.356 20.5516C227.318 23.9539 227.015 27.4246 227.015 27.4246L227.11 27.5546Z" fill="black"/>
        <path opacity="0.1" d="M253.67 88.043C253.67 88.1319 253.67 88.2208 253.654 88.3098C252.971 99.2554 275.06 90.8181 275.06 90.8181C274.802 90.4688 274.607 90.0767 274.484 89.6597C271.157 90.8455 254.438 96.3594 253.67 88.043Z" fill="black"/>
        <path opacity="0.1" d="M305.917 30.9591C305.917 30.9591 300.452 41.9047 298.63 46.0094C296.808 50.114 280.184 56.2709 277.907 56.4989C277.296 56.5828 276.727 56.8573 276.281 57.2834C274.994 58.4236 274.263 60.3755 274.263 60.3755C274.263 60.3755 274.318 60.7472 274.384 61.4541C274.639 60.8681 275.295 59.5227 276.281 58.6516C276.727 58.2255 277.296 57.951 277.907 57.8671C280.184 57.6391 296.808 51.4822 298.63 47.3776C300.452 43.2729 305.917 32.3273 305.917 32.3273C305.917 32.3273 309.768 20.6177 309.345 17.1151C308.994 21.6028 305.917 30.9591 305.917 30.9591Z" fill="black"/>
        <path opacity="0.1" d="M253.625 78.8737C253.393 76.719 252.955 74.5916 252.317 72.5206C251.778 70.6302 251.133 68.5574 250.466 65.7343C250.145 64.3258 249.722 62.9425 249.2 61.5955C249.184 61.5545 249.168 61.5134 249.154 61.4746C248.016 58.6447 246.877 57.7303 246.226 57.4339C245.611 57.166 245.025 56.8359 244.477 56.4488C242.373 54.9278 237.857 51.5187 233.835 47.4916C228.37 42.0188 222.904 29.0208 222.904 29.0208C222.702 27.9235 222.59 26.8116 222.567 25.696C222.512 27.2679 222.625 28.8413 222.904 30.389C222.904 30.389 228.37 43.387 233.835 48.8598C237.857 52.8869 242.373 56.296 244.477 57.817C245.029 58.205 245.62 58.5351 246.239 58.8021C246.889 59.0985 248.025 60.0129 249.168 62.8428C249.182 62.8816 249.198 62.9227 249.214 62.9637C249.733 64.3109 250.154 65.6942 250.473 67.1025C251.14 69.9256 251.785 71.9984 252.324 73.8888C252.962 75.9598 253.4 78.0872 253.631 80.2419C253.727 81.1951 253.784 82.2326 253.8 83.4002C253.828 81.8892 253.769 80.3779 253.625 78.8737Z" fill="black"/>
    </g>
    <path d="M276.179 68.9679C275.831 69.5434 275.526 70.1441 275.268 70.7648C274.924 71.7225 274.922 72.7647 274.858 73.7794C274.767 75.2035 274.551 76.6167 274.211 78.0026C274.156 78.2579 274.08 78.508 273.983 78.7506C273.915 78.9138 273.826 79.0672 273.717 79.2066C273.595 79.3553 273.453 79.4852 273.293 79.592C273.049 79.7552 272.791 79.8964 272.521 80.0139C269.351 81.4961 265.894 82.805 262.435 82.2942C260.973 82.0382 259.558 81.5615 258.238 80.8804C256.986 80.2715 255.569 79.5487 254.271 80.0549C254.072 80.1562 253.857 80.2232 253.636 80.2533C253.593 80.254 253.55 80.2502 253.508 80.2419C253.08 80.1598 253.08 78.7141 252.982 78.2876C252.609 76.6504 252.552 75.3232 252.329 73.9003C252.21 73.1134 252.027 72.3377 251.78 71.5812C250.869 68.8219 250.594 65.8803 250.594 62.9888C250.594 62.8452 249.569 62.9888 249.227 62.9751C249.141 62.9751 249.093 62.9615 249.113 62.9318C249.133 62.9035 249.156 62.8774 249.182 62.8543C249.301 62.7573 249.44 62.688 249.589 62.6513L249.858 62.5715C251.265 62.1725 252.818 62.006 253.871 61.014C254.964 59.9902 255.237 58.3552 255.189 56.8593C255.175 56.3781 254.941 55.2106 254.98 54.2414C255.376 54.3071 255.778 54.3414 256.18 54.344C256.37 54.3501 256.56 54.3122 256.734 54.2331C256.908 54.154 257.061 54.0359 257.182 53.888C257.562 54.6245 257.89 55.3864 258.165 56.1683C258.553 57.1215 258.849 58.1248 259.416 58.9868C260.327 60.3915 262.007 61.3151 263.679 61.1737C265.35 61.0323 266.906 59.7462 267.204 58.0952C267.466 56.6472 266.858 54.5629 266.871 53.0579C267.76 53.3189 268.7 53.3495 269.604 53.1469C269.643 53.2398 269.675 53.335 269.702 53.4319C270.214 55.1923 270.898 57.2127 272.617 57.8375C273.728 58.2389 275.042 57.9379 276.069 58.5216C276.148 58.5671 276.224 58.6173 276.297 58.6721C276.534 58.8487 276.738 59.0656 276.9 59.3129C277.322 60.0104 277.573 60.7982 277.631 61.6115C277.894 64.154 277.388 66.717 276.179 68.9679V68.9679Z" fill="#0084FF"/>
    <path opacity="0.1" d="M264.644 50.6202C263.508 51.0587 262.285 51.2234 261.074 51.101C259.863 50.9786 258.697 50.5725 257.671 49.9156C257.587 49.1773 257.463 48.4442 257.298 47.7196C257.298 47.7196 264.699 43.0449 264.471 48.7458C264.436 49.3757 264.494 50.0074 264.644 50.6202V50.6202Z" fill="black"/>
    <path d="M261.85 50.6841C266.126 50.6841 269.593 47.2129 269.593 42.9309C269.593 38.6489 266.126 35.1777 261.85 35.1777C257.574 35.1777 254.107 38.6489 254.107 42.9309C254.107 47.2129 257.574 50.6841 261.85 50.6841Z" fill="#FABDBD"/>
    <path d="M249 63.032C249 63.032 257.432 53.5229 284.443 63.7112C311.453 73.8995 326.868 65.7489 326.868 65.7489L327 75.4844C327 75.4844 296.959 81.1445 285.365 75.4844C273.77 69.8242 257.397 65.8802 251.617 74.6444L249 63.032Z" fill="#F86D70"/>
    <path d="M243 76.968C243 76.968 209.549 86.4771 102.4 76.2888C-4.74946 66.1005 1.52268 74.2511 1.52268 74.2511L1 64.5156C1 64.5156 52.7451 58.8555 98.7408 64.5156C144.737 70.1758 209.69 74.1198 232.62 65.3556L243 76.968Z" fill="#F86D70"/>
    <path d="M255.191 44.2147C254.964 42.7918 254.613 40.9995 255.802 40.1854C256.226 39.9279 256.716 39.8011 257.211 39.8205C259.673 39.7954 262.025 41.5125 264.439 41.0109C265.208 40.8496 265.913 40.4697 266.471 39.9166C267.028 39.3635 267.414 38.6609 267.583 37.8932C267.751 37.1256 267.695 36.3255 267.42 35.5893C267.145 34.8531 266.663 34.2121 266.033 33.7434C265.084 33.0365 263.884 32.7811 262.722 32.5417C259.668 31.9123 256.48 31.2852 253.465 32.0856C250.45 32.886 247.695 35.5928 247.936 38.6986C248.05 40.1854 248.806 41.5353 249.596 42.8032C250.197 43.7655 252.538 48.276 253.675 48.3444C255.278 48.4379 255.348 45.1451 255.191 44.2147Z" fill="#3F3D56"/>
    <path d="M274.377 86.9416C274.377 86.9416 258.664 90.8182 253.426 86.9416C253.426 86.9416 251.149 95.8349 251.832 100.396C251.832 100.396 262.991 101.08 264.13 101.764C264.13 101.764 264.357 99.9395 265.496 100.852C265.496 100.852 269.367 96.291 276.427 100.396C276.427 100.396 277.793 89.678 274.377 86.9416Z" fill="#0084FF"/>
    <path opacity="0.1" d="M266.038 33.7434C265.876 33.6258 265.706 33.5192 265.53 33.4241C266 33.9591 266.321 34.6082 266.462 35.3065C266.603 36.0049 266.559 36.728 266.333 37.4037C266.107 38.0793 265.708 38.6838 265.176 39.1568C264.644 39.6297 263.997 39.9545 263.301 40.0987C260.887 40.6004 258.534 38.8833 256.073 38.9084C255.577 38.8889 255.087 39.0158 254.663 39.2732C253.474 40.0873 253.823 41.8796 254.05 43.3026C254.201 44.233 254.139 47.5258 252.541 47.4368H252.513C252.953 47.9727 253.363 48.3353 253.679 48.349C255.273 48.4379 255.339 45.1565 255.189 44.2147C254.961 42.7918 254.613 40.9994 255.802 40.1854C256.226 39.9279 256.716 39.801 257.211 39.8205C259.673 39.7954 262.025 41.5125 264.439 41.0108C265.208 40.8496 265.913 40.4696 266.471 39.9166C267.028 39.3635 267.415 38.6609 267.583 37.8932C267.751 37.1255 267.695 36.3255 267.42 35.5893C267.145 34.8531 266.663 34.2121 266.033 33.7434H266.038Z" fill="black"/>
</svg>
